<?xml version="1.0" standalone="no"?>
<!DOCTYPE svg PUBLIC "-//W3C//DTD SVG 20010904//EN"
 "http://www.w3.org/TR/2001/REC-SVG-20010904/DTD/svg10.dtd">
<svg version="1.0" xmlns="http://www.w3.org/2000/svg"
 width="554.000000pt" height="599.000000pt" viewBox="0 0 554.000000 599.000000"
 preserveAspectRatio="xMidYMid meet">

<g transform="translate(0.000000,599.000000) scale(0.100000,-0.100000)"
fill="#000000" stroke="none">
<path d="M4170 5924 c-75 -11 -141 -29 -186 -50 -81 -38 -189 -166 -207 -244
l-6 -25 132 11 c79 6 147 18 169 27 21 10 59 17 86 17 60 0 119 -38 161 -105
44 -70 53 -117 49 -267 -3 -135 -3 -137 -34 -175 -17 -21 -63 -56 -102 -78
-40 -22 -72 -45 -72 -50 0 -6 37 -52 82 -103 56 -63 88 -92 104 -92 40 0 129
47 167 90 49 54 105 140 123 192 21 59 20 431 -1 513 -35 134 -115 248 -209
297 -66 34 -180 53 -256 42z"/>
<path d="M1094 5901 c-108 -40 -170 -87 -223 -170 -24 -36 -71 -148 -71 -167
0 -1 21 6 48 16 26 10 76 23 112 30 36 7 96 21 133 32 44 13 80 18 103 14 45
-9 104 -69 141 -144 27 -54 28 -64 27 -192 -1 -109 -4 -142 -19 -170 -35 -67
-66 -98 -122 -122 -54 -22 -83 -55 -83 -93 0 -26 36 -88 70 -120 28 -27 38
-30 93 -30 123 0 231 78 302 220 l40 80 3 233 c3 216 1 239 -18 297 -42 127
-129 228 -235 276 -70 31 -228 37 -301 10z"/>
<path d="M940 5486 c-191 -68 -323 -148 -458 -279 -149 -145 -301 -403 -341
-582 -44 -197 -44 -199 -45 -1800 -1 -1433 0 -1537 17 -1645 33 -205 63 -297
150 -455 162 -295 436 -531 729 -628 206 -69 361 -73 789 -22 433 52 1044 119
1594 175 105 11 273 29 375 40 102 11 298 31 435 45 303 31 333 37 460 87 430
169 689 505 778 1006 l22 127 0 1490 0 1490 -26 120 c-15 67 -42 160 -61 207
-67 168 -209 363 -326 448 -64 47 -198 120 -219 120 -9 0 -13 -41 -15 -146
l-3 -145 43 -19 c122 -54 245 -230 311 -444 36 -116 56 -106 -215 -106 -197 0
-471 -14 -482 -25 -5 -4 59 -183 72 -200 10 -13 35 -14 211 -5 110 5 257 10
326 10 l127 0 1 -1397 c0 -904 -3 -1421 -10 -1463 -17 -110 -59 -251 -102
-340 -117 -241 -354 -440 -597 -501 -105 -26 -349 -54 -1045 -119 -294 -28
-822 -84 -1130 -119 -137 -16 -279 -32 -315 -36 -36 -3 -141 -15 -235 -25
-373 -43 -483 -44 -620 -6 -345 95 -645 419 -730 789 -32 142 -35 271 -35
1702 l0 1432 143 12 c199 15 343 19 900 27 l487 7 0 -29 c0 -17 18 21 44 97
23 69 46 131 50 137 3 6 1 14 -6 18 -6 4 -246 7 -532 6 -524 -2 -933 -15
-1015 -33 -24 -5 -46 -7 -49 -4 -10 10 47 175 93 270 81 167 241 333 393 406
60 29 166 58 277 76 l50 8 -3 115 c-2 63 -6 118 -9 123 -2 4 -46 7 -96 7 -70
0 -107 -6 -157 -24z"/>
<path d="M1841 5502 l-43 -3 3 -119 c2 -65 8 -122 12 -127 5 -4 178 -10 385
-13 l377 -6 125 37 c232 69 315 88 430 99 196 19 385 -13 618 -104 52 -20 101
-35 110 -32 9 3 90 6 180 8 l162 3 0 122 c0 85 -4 124 -12 129 -12 8 -2260 13
-2347 6z"/>
<path d="M3078 5170 c-249 -31 -467 -140 -654 -325 -166 -165 -267 -353 -320
-597 -14 -64 -18 -125 -18 -268 0 -183 1 -186 37 -310 82 -279 235 -494 470
-661 172 -123 413 -199 631 -199 102 0 301 44 407 90 216 93 301 163 505 417
60 74 132 217 168 333 49 161 60 242 53 422 -4 128 -10 172 -36 271 -54 206
-122 326 -271 481 -91 95 -149 142 -245 197 -79 46 -235 113 -310 134 -70 19
-315 28 -417 15z m328 -235 c190 -43 439 -193 529 -319 48 -67 121 -215 148
-301 26 -79 47 -220 47 -309 0 -96 -46 -309 -85 -395 -38 -83 -109 -199 -157
-258 -92 -113 -270 -225 -443 -279 -78 -25 -106 -29 -205 -28 -195 1 -346 47
-501 151 -199 135 -339 344 -395 593 -23 100 -25 129 -20 220 9 153 46 320 93
421 44 94 114 198 165 245 105 98 289 211 402 246 123 38 286 43 422 13z"/>
<path d="M3192 4853 c-29 -12 -42 -62 -42 -167 0 -118 8 -148 45 -172 22 -14
32 -15 65 -5 64 19 71 39 65 177 -5 117 -5 119 -35 147 -29 25 -65 33 -98 20z"/>
<path d="M2790 4680 c-28 -28 -27 -84 2 -104 33 -23 64 -19 87 11 24 30 21 55
-12 91 -25 27 -51 28 -77 2z"/>
<path d="M3705 4589 c-11 -6 -94 -86 -185 -178 -91 -92 -200 -200 -244 -240
l-78 -73 -82 79 c-113 111 -131 123 -182 123 -31 0 -51 -7 -74 -26 -41 -35
-63 -80 -55 -112 3 -14 52 -71 108 -126 56 -56 130 -133 164 -172 41 -47 72
-73 90 -77 51 -10 107 27 215 146 135 148 152 167 320 341 78 81 146 157 150
168 12 30 -2 97 -26 125 -24 28 -90 40 -121 22z"/>
<path d="M2450 4063 c-69 -13 -97 -107 -45 -158 26 -27 37 -29 139 -16 54 7
74 15 97 37 40 39 40 83 -2 118 -27 23 -39 26 -97 25 -37 -1 -78 -4 -92 -6z"/>
<path d="M3794 4055 c-35 -24 -48 -68 -31 -101 32 -62 46 -68 159 -60 93 6
105 9 130 33 34 33 37 79 7 117 -20 25 -23 26 -133 26 -82 0 -117 -4 -132 -15z"/>
<path d="M3173 3464 c-25 -25 -25 -27 -21 -148 4 -143 17 -176 69 -176 77 0
99 42 99 185 0 107 0 107 -31 136 -40 37 -81 38 -116 3z"/>
<path d="M3616 3409 c-52 -41 -23 -129 42 -129 38 0 77 50 67 88 -15 61 -61
79 -109 41z"/>
<path d="M2770 3400 c-11 -11 -20 -31 -20 -44 0 -31 46 -86 72 -86 24 0 78 52
78 75 0 26 -55 75 -84 75 -14 0 -35 -9 -46 -20z"/>
<path d="M4543 4148 c9 -71 4 -247 -10 -337 l-6 -44 114 7 c169 11 159 -3 159
226 0 158 -3 191 -16 204 -12 13 -39 16 -133 16 l-117 0 9 -72z"/>
<path d="M1872 4168 c-6 -13 -11 -17 -11 -10 -1 6 -10 12 -20 12 -18 0 -19
-10 -22 -167 -5 -226 -2 -309 11 -333 14 -26 65 -27 78 -2 10 18 9 27 -10 137
-7 39 -12 139 -12 228 1 86 1 157 -1 157 -1 0 -7 -10 -13 -22z"/>
<path d="M1355 4100 c-19 -5 -6 -6 35 -3 57 4 68 2 88 -17 13 -12 26 -20 28
-17 3 3 -7 14 -22 26 -28 22 -72 26 -129 11z"/>
<path d="M1037 4089 c-37 -21 -47 -63 -52 -221 -4 -84 -2 -166 2 -182 6 -19
22 -36 44 -47 34 -18 51 -17 244 3 17 2 36 10 43 18 10 13 11 12 6 -4 -6 -16
-4 -17 12 -8 13 7 26 7 39 1 19 -10 19 -10 1 5 -10 8 -24 13 -30 9 -6 -3 -5 0
2 8 16 17 16 37 0 21 -7 -7 -17 -12 -23 -12 -5 0 -2 5 7 10 15 9 15 14 4 43
-8 17 -12 40 -11 50 2 9 0 15 -5 12 -5 -3 -6 -18 -4 -34 5 -32 -12 -52 -22
-27 -3 9 -10 14 -15 11 -11 -7 -28 26 -21 44 3 9 0 11 -8 6 -9 -5 -11 -4 -6 3
4 7 7 34 8 62 0 28 4 47 9 44 5 -3 7 -9 4 -14 -3 -5 -1 -12 5 -15 8 -5 8 -11
0 -20 -6 -8 -10 -24 -7 -37 4 -20 4 -19 6 5 0 16 5 26 10 23 8 -5 8 15 1 34
-1 3 -2 8 -2 12 1 3 -5 12 -13 18 -8 7 -15 17 -15 23 0 5 10 2 23 -9 12 -10
19 -15 15 -10 -4 5 -3 15 3 22 7 8 7 14 -1 19 -6 4 -9 3 -8 -2 2 -4 -2 -8 -7
-8 -5 0 -9 3 -8 8 2 4 -2 7 -8 7 -5 0 -7 5 -4 10 3 6 3 16 -2 23 -4 6 -8 18
-9 25 -3 20 -14 28 -14 11 0 -11 -2 -11 -10 1 -6 9 -10 10 -10 3 0 -6 5 -15
10 -18 6 -4 7 -11 4 -17 -5 -7 -2 -8 6 -3 9 5 11 4 6 -4 -4 -6 -3 -17 2 -24
10 -13 10 -46 0 -63 -4 -5 -3 -16 2 -24 4 -7 4 -23 0 -36 -5 -12 -6 -25 -2
-30 4 -4 2 -4 -5 0 -7 4 -10 13 -6 22 3 8 -3 25 -13 37 -16 18 -16 20 -1 8 16
-13 25 -2 10 13 -10 10 -13 37 -3 31 5 -3 7 7 5 22 -2 16 -4 32 -4 36 -1 5 -5
6 -10 3 -5 -4 -8 2 -7 11 2 10 0 30 -5 45 -7 26 -6 27 47 38 30 6 54 13 54 16
0 9 -246 3 -263 -7z m140 -26 c-4 -3 -1 -13 6 -22 11 -14 10 -14 -5 -2 -16 12
-16 31 -1 31 4 0 3 -3 0 -7z m148 -353 c-3 -5 -12 -10 -18 -10 -7 0 -6 4 3 10
19 12 23 12 15 0z"/>
<path d="M1273 3801 c-6 -17 -7 -35 -2 -42 5 -8 9 -9 9 -4 0 6 7 1 15 -9 8
-11 15 -15 15 -10 0 6 -3 14 -7 18 -4 3 -8 20 -9 37 -3 42 -8 44 -21 10z"/>
<path d="M1361 3792 c3 -20 -2 -25 -11 -12 -7 11 -8 4 -6 -23 2 -20 9 -44 16
-52 6 -8 9 -18 6 -23 -3 -5 1 -9 9 -9 9 0 11 6 7 16 -4 9 -7 34 -6 56 0 29 5
39 15 37 8 -2 10 0 6 4 -10 10 -37 14 -36 6z m7 -53 c-1 -17 -4 -25 -8 -18 -5
6 -6 19 -5 28 5 21 4 21 9 21 3 0 4 -14 4 -31z"/>
<path d="M1413 3769 c-2 -23 3 -25 10 -4 4 8 3 16 -1 19 -4 3 -9 -4 -9 -15z"/>
<path d="M1393 3719 c-2 -23 3 -25 10 -4 4 8 3 16 -1 19 -4 3 -9 -4 -9 -15z"/>
<path d="M4484 3553 c-15 -3 -24 -14 -28 -36 -12 -62 -133 -285 -213 -393 -13
-17 -23 -33 -23 -35 0 -6 187 -3 361 5 214 11 204 1 214 219 6 141 5 169 -9
195 -9 17 -25 36 -35 42 -19 9 -222 12 -267 3z"/>
<path d="M1980 3463 c0 -7 -3 -12 -7 -11 -25 6 -123 -16 -136 -30 -24 -29 -27
-61 -20 -246 6 -175 7 -180 32 -208 l26 -29 214 20 c117 11 218 18 224 14 6
-4 -18 27 -54 68 -104 119 -144 177 -213 309 -36 69 -66 119 -66 113z"/>
<path d="M1260 3384 c-107 -6 -204 -14 -215 -17 -12 -4 -29 -21 -40 -39 -17
-29 -18 -51 -16 -213 l2 -180 27 -28 c25 -27 31 -28 77 -23 46 6 205 17 248
17 10 0 15 5 11 12 -5 8 -3 8 7 0 7 -7 26 -13 42 -13 22 0 28 4 23 16 -3 8 -2
12 4 9 6 -3 10 1 10 10 0 9 -4 14 -8 11 -5 -3 -9 2 -9 10 0 8 6 13 13 10 8 -3
16 0 20 6 4 7 3 8 -4 4 -7 -4 -12 -2 -12 3 0 6 6 11 14 11 8 0 18 5 22 12 4 7
3 8 -4 4 -14 -9 -16 4 -13 97 1 22 4 28 10 18 6 -9 9 2 8 32 0 25 -4 44 -7 42
-4 -3 -6 -17 -4 -32 2 -17 1 -20 -2 -8 -4 11 -11 27 -17 35 -6 8 -7 12 -3 8 5
-5 16 2 24 13 14 20 13 23 -9 40 -13 9 -28 15 -34 11 -5 -3 -4 2 4 11 13 17
36 14 26 -4 -4 -5 -2 -9 3 -9 18 0 22 14 7 30 -13 14 -13 17 -1 17 8 0 15 -3
14 -6 0 -3 0 -8 2 -11 1 -3 4 -16 6 -29 7 -40 11 -35 17 30 7 65 -2 94 -30
101 -10 2 -106 -1 -213 -8z m50 -19 c0 -2 -10 -9 -22 -15 -22 -11 -22 -10 -4
4 21 17 26 19 26 11z m95 -5 c-3 -5 -1 -10 5 -10 6 0 9 -4 6 -9 -3 -5 1 -14 9
-21 14 -12 14 -15 0 -30 -17 -19 -38 -21 -43 -5 -7 19 -24 35 -33 29 -5 -3 -9
2 -9 11 0 9 -5 13 -10 10 -6 -4 -7 -12 -3 -18 4 -7 0 -6 -10 2 -9 7 -17 16
-17 19 0 3 3 2 7 -1 3 -4 15 1 26 10 11 10 17 13 14 6 -4 -6 -3 -14 3 -18 5
-3 10 0 10 7 0 9 3 9 10 -2 8 -13 10 -13 10 2 0 14 9 22 28 27 2 1 0 -3 -3 -9z
m-48 -75 c0 -8 -4 -12 -9 -9 -5 3 -6 10 -3 15 9 13 12 11 12 -6z m113 -56 c0
-4 -6 -9 -13 -12 -8 -3 -14 0 -14 7 0 7 6 13 14 13 7 0 13 -4 13 -8z"/>
<path d="M1386 3334 c-3 -9 -11 -12 -18 -8 -7 4 -5 -2 5 -13 9 -11 14 -22 11
-26 -3 -3 1 -4 10 -3 29 4 35 20 16 43 -15 19 -19 20 -24 7z m28 -36 c-3 -5
-12 -4 -20 3 -7 6 -11 15 -8 21 3 5 12 4 20 -3 7 -6 11 -15 8 -21z"/>
<path d="M4505 2864 c-163 -13 -171 -14 -192 -39 -13 -14 -23 -38 -24 -53 -3
-105 4 -330 12 -344 5 -10 20 -25 33 -33 21 -14 33 -14 107 -1 46 8 132 18
192 22 103 6 109 8 132 36 24 29 25 33 25 198 0 93 -3 176 -6 185 -8 21 -57
45 -86 44 -13 -1 -99 -8 -193 -15z"/>
<path d="M3895 2824 c-126 -82 -244 -134 -394 -174 l-44 -12 7 -121 c8 -165
30 -196 123 -177 26 6 113 13 192 17 139 6 145 7 175 34 l31 27 3 202 c3 195
0 250 -16 250 -4 0 -38 -21 -77 -46z"/>
<path d="M2200 2730 c-30 -5 -116 -13 -190 -19 -131 -11 -136 -12 -162 -41
l-28 -30 0 -185 0 -185 28 -30 27 -31 160 15 c88 9 182 16 208 16 40 0 54 5
78 29 l29 29 0 187 c0 139 -4 194 -14 220 -17 39 -24 40 -136 25z"/>
<path d="M2666 2723 c-3 -4 -6 -90 -6 -192 0 -268 -10 -259 268 -234 254 22
242 13 242 187 l0 124 -52 7 c-186 23 -305 52 -409 98 -20 9 -39 13 -43 10z"/>
<path d="M1270 2644 c-222 -20 -239 -24 -264 -57 -19 -26 -21 -44 -24 -194 -4
-177 2 -211 43 -237 18 -12 35 -13 86 -6 34 5 117 12 183 15 139 8 181 18 198
48 8 15 14 90 16 218 4 196 4 196 -19 213 -13 9 -33 15 -44 15 -11 -1 -90 -8
-175 -15z m167 -19 c0 -8 -4 -12 -9 -9 -5 3 -6 10 -3 15 9 13 12 11 12 -6z"/>
<path d="M4675 2185 c-5 -2 -82 -9 -169 -15 -87 -6 -167 -15 -177 -21 -41 -21
-49 -60 -49 -224 0 -230 16 -255 149 -236 42 6 129 14 193 17 168 10 162 1
166 243 l3 188 -31 27 c-29 23 -58 31 -85 21z"/>
<path d="M3869 2126 c-2 -2 -74 -9 -159 -15 -195 -14 -197 -15 -220 -54 -18
-29 -20 -51 -20 -209 l0 -178 28 -31 28 -31 89 11 c50 6 139 13 198 17 94 5
112 9 135 29 25 22 27 31 33 127 14 213 11 283 -12 312 -16 20 -29 26 -58 26
-21 0 -40 -2 -42 -4z"/>
<path d="M3010 2060 c-41 -5 -124 -11 -185 -15 -107 -7 -110 -8 -144 -42 l-34
-34 6 -180 c4 -98 11 -188 17 -199 21 -40 43 -43 214 -31 244 17 244 17 267
54 17 29 19 52 19 223 0 186 -1 191 -23 212 -13 12 -32 21 -43 21 -10 -1 -53
-5 -94 -9z"/>
<path d="M2225 1999 c-27 -4 -117 -12 -200 -18 -149 -10 -150 -10 -177 -41
-28 -30 -28 -32 -30 -178 -4 -254 -6 -242 27 -269 20 -18 35 -23 54 -19 14 3
96 10 181 16 206 15 214 16 244 47 l26 26 0 202 c0 180 -2 204 -17 217 -26 22
-51 27 -108 17z"/>
<path d="M1380 1923 c-123 -9 -346 -46 -362 -60 -30 -27 -38 -81 -38 -250 l0
-163 29 -32 28 -32 144 17 c79 10 156 17 170 17 14 0 49 7 78 16 76 22 81 38
81 273 l0 189 -25 16 c-13 9 -32 15 -42 14 -10 -1 -38 -3 -63 -5z"/>
<path d="M4685 1485 c-5 -3 -88 -11 -184 -19 -234 -18 -221 -3 -221 -249 0
-163 2 -185 20 -214 25 -41 57 -49 137 -34 35 6 107 16 160 21 165 15 180 39
185 282 3 156 2 169 -17 187 -20 20 -62 33 -80 26z"/>
<path d="M3705 1391 c-93 -10 -178 -21 -188 -25 -39 -18 -47 -57 -47 -236 0
-188 7 -218 58 -244 23 -12 37 -12 97 0 39 7 124 16 190 20 169 10 160 -3 169
249 10 280 26 266 -279 236z"/>
<path d="M2880 1323 c-161 -14 -166 -15 -195 -44 l-30 -29 0 -196 0 -196 33
-29 c38 -34 31 -33 158 -14 54 8 131 15 171 15 145 0 153 14 153 277 0 224 -3
234 -78 232 -26 -1 -121 -8 -212 -16z"/>
<path d="M2046 1251 c-236 -22 -221 -4 -229 -257 -6 -208 -2 -227 48 -255 28
-15 42 -15 228 5 188 21 199 23 225 49 l27 27 3 192 c2 105 1 201 -2 213 -7
26 -46 45 -89 44 -18 -1 -112 -9 -211 -18z"/>
<path d="M1237 1165 c-187 -22 -188 -23 -223 -56 l-34 -33 0 -174 0 -174 35
-35 36 -36 82 7 c45 3 129 8 187 12 140 7 145 9 169 47 18 30 21 56 27 228 9
261 23 251 -279 214z"/>
</g>
</svg>
